<?xml version="1.0" encoding="utf-8"?>
<!-- Generator: Adobe Illustrator 19.0.0, SVG Export Plug-In . SVG Version: 6.00 Build 0)  -->
<svg version="1.1" id="Layer_1" xmlns="http://www.w3.org/2000/svg" xmlns:xlink="http://www.w3.org/1999/xlink" x="0px" y="0px"
	 viewBox="-215 237 80 40" style="enable-background:new -215 237 80 40;" xml:space="preserve">
<style type="text/css">
	.st0{fill:#30373E;}
</style>
<g>
	<g>
		<polygon class="st0" points="-159,252.5 -153.1,252.5 -149.6,256.4 -135.6,245.9 -149.6,262.7 		"/>
		<polygon class="st0" points="-153.7,260.9 -150.8,264.1 -153.7,267.2 -159.5,267.2 		"/>
		<polygon class="st0" points="-145.4,260.9 -148.2,264.1 -145.4,267.2 -139.5,267.2 		"/>
	</g>
</g>
<g>
	<path class="st0" d="M-209.5,261.9c-0.7,0-1.3-0.1-1.8-0.4c-0.6-0.3-1-0.6-1.4-1s-0.6-0.9-0.8-1.5c-0.2-0.6-0.3-1.2-0.3-1.8
		c0-0.9,0.2-1.7,0.5-2.4c0.3-0.7,0.8-1.3,1.5-1.7c0.7-0.4,1.4-0.6,2.3-0.6c0.6,0,1.2,0.2,1.8,0.5c0.5,0.3,0.9,0.7,1.2,1.2v-1.4h1.6
		v9.1h-1.6v-1.5c-0.3,0.5-0.6,1-1.2,1.3C-208.3,261.8-208.9,261.9-209.5,261.9z M-209.3,260.6c0.9,0,1.6-0.3,2.1-0.9
		c0.5-0.6,0.7-1.5,0.7-2.5c0-1-0.2-1.8-0.7-2.4c-0.5-0.6-1.2-0.9-2.1-0.9c-0.9,0-1.7,0.3-2.2,0.9c-0.5,0.6-0.7,1.4-0.7,2.5
		c0,1,0.2,1.8,0.7,2.5C-211,260.3-210.2,260.6-209.3,260.6z"/>
	<path class="st0" d="M-198,261.9c-1.2,0-2.2-0.4-3-1.3c-0.8-0.9-1.2-2-1.2-3.4c0-0.9,0.2-1.8,0.5-2.5c0.3-0.7,0.8-1.3,1.5-1.7
		s1.4-0.6,2.3-0.6c0.7,0,1.3,0.2,1.8,0.5c0.5,0.3,0.9,0.7,1.1,1.1v-5.4h1.6v10.8c0,0.5,0,1.3,0.1,2.3h-1.7l0-1.5
		c-0.2,0.5-0.5,0.9-1.1,1.2C-196.6,261.8-197.2,261.9-198,261.9z M-197.8,260.6c0.9,0,1.6-0.3,2.1-0.9c0.5-0.6,0.7-1.5,0.7-2.5
		c0-1-0.2-1.8-0.7-2.4c-0.5-0.6-1.2-0.9-2-0.9s-1.5,0.3-2,0.9c-0.5,0.6-0.7,1.5-0.7,2.5c0,1,0.2,1.8,0.7,2.5
		C-199.3,260.3-198.6,260.6-197.8,260.6z"/>
	<path class="st0" d="M-189.9,261.7V255c0-0.3,0-1.1-0.1-2.4h1.7l0,1.5c0.2-0.5,0.6-0.9,1.2-1.2c0.5-0.3,1.1-0.5,1.7-0.5
		c0.6,0,1.2,0.2,1.7,0.5c0.5,0.3,0.8,0.8,1.1,1.4c0.3-0.6,0.8-1.1,1.3-1.4c0.6-0.3,1.2-0.5,1.9-0.5c1,0,1.8,0.3,2.3,1
		c0.5,0.7,0.8,1.6,0.8,2.8v5.5h-1.6v-5.4c0-0.8-0.1-1.4-0.4-1.9c-0.3-0.5-0.7-0.7-1.3-0.7c-0.7,0-1.3,0.3-1.9,0.8
		c-0.5,0.5-0.8,1.2-0.8,1.9v5.2h-1.6v-5.6c0-0.7-0.1-1.3-0.4-1.7c-0.3-0.4-0.7-0.7-1.4-0.7c-0.7,0-1.3,0.2-1.8,0.7
		c-0.5,0.5-0.8,1.1-0.8,1.7v5.5H-189.9z"/>
	<path class="st0" d="M-172.8,261.7v-9.1h1.6v9.1H-172.8z M-172.8,250.4v-1.5h1.6v1.5H-172.8z"/>
	<path class="st0" d="M-167.7,261.7v-6.6c0-0.4,0-0.8,0-1.2c0-0.4,0-0.7,0-1l0-0.3h1.7l0,1.4c0.3-0.5,0.8-0.9,1.3-1.2
		c0.6-0.3,1.2-0.4,1.8-0.4c1.1,0,2,0.3,2.5,1c0.5,0.7,0.8,1.7,0.8,3.1v5.1h-1.6v-5.1c0-1-0.1-1.7-0.4-2.2c-0.3-0.5-0.8-0.7-1.6-0.7
		c-0.7,0-1.3,0.2-1.9,0.7c-0.6,0.5-0.9,1-0.9,1.6v5.7H-167.7z"/>
</g>
</svg>
